<svg width="16" height="17" viewBox="0 0 16 17" fill="none" xmlns="http://www.w3.org/2000/svg">
<path d="M6.57326 13.1667L7.69327 12.22C7.85993 12.08 8.13993 12.08 8.31327 12.22L9.4266 13.1667C9.6866 13.3 10.0066 13.1667 10.0999 12.8867L10.3133 12.2467C10.3666 12.0934 10.3133 11.8667 10.1999 11.7534L9.1066 10.6534C9.0266 10.5734 8.9666 10.42 8.9666 10.3134V9.08003C8.9666 8.80003 9.17326 8.6667 9.43326 8.77337L11.6666 9.73337C12.0333 9.89337 12.3399 9.69337 12.3399 9.29337V8.67337C12.3399 8.35337 12.0999 7.98003 11.7999 7.85337L9.17326 6.72003C9.05993 6.67337 8.97327 6.53337 8.97327 6.41337V5.03337C8.97327 4.58003 8.63993 4.0467 8.23993 3.84003C8.09326 3.7667 7.9266 3.7667 7.77993 3.84003C7.37327 4.04003 7.0466 4.58003 7.0466 5.03337V6.41337C7.0466 6.53337 6.95327 6.67337 6.8466 6.72003L4.21993 7.85337C3.9266 7.98003 3.67993 8.35337 3.67993 8.67337V9.29337C3.67993 9.69337 3.97993 9.89337 4.35327 9.73337L6.5866 8.77337C6.83993 8.66003 7.05327 8.80003 7.05327 9.08003V10.3134C7.05327 10.4267 6.9866 10.58 6.91327 10.6534L5.79993 11.7467C5.6866 11.86 5.63326 12.0867 5.6866 12.24L5.89993 12.88C5.99327 13.1667 6.3066 13.3 6.57326 13.1667Z" stroke="#282828" stroke-linecap="round" stroke-linejoin="round"/>
<path d="M5.99992 15.1667H9.99992C13.3333 15.1667 14.6666 13.8334 14.6666 10.5V6.50004C14.6666 3.16671 13.3333 1.83337 9.99992 1.83337H5.99992C2.66659 1.83337 1.33325 3.16671 1.33325 6.50004V10.5C1.33325 13.8334 2.66659 15.1667 5.99992 15.1667Z" stroke="#282828" stroke-linecap="round" stroke-linejoin="round"/>
</svg>
