<svg width="20" height="20" viewBox="0 0 20 20" fill="none" xmlns="http://www.w3.org/2000/svg">
<path d="M3.33301 11.25V15.75C3.33301 17.1667 4.49134 18.3333 5.91634 18.3333H14.083C15.4997 18.3333 16.6663 17.175 16.6663 15.75V11.25C16.6663 11.0167 16.483 10.8333 16.2497 10.8333H3.74967C3.51634 10.8333 3.33301 11.0167 3.33301 11.25ZM7.39967 15.3167C7.20801 15.5167 6.94134 15.625 6.66634 15.625C6.59967 15.625 6.53301 15.6167 6.46634 15.6083C6.39967 15.5917 6.33301 15.575 6.26634 15.5417C6.20801 15.5167 6.14134 15.4833 6.09134 15.45C6.03301 15.4083 5.97467 15.3667 5.93301 15.3167C5.73301 15.125 5.62467 14.8583 5.62467 14.5833C5.62467 14.3083 5.73301 14.0417 5.93301 13.85C5.97467 13.8 6.03301 13.7583 6.09134 13.7167C6.14134 13.6833 6.20801 13.65 6.26634 13.625C6.33301 13.5917 6.39967 13.575 6.46634 13.5583C6.79967 13.4917 7.15801 13.6083 7.39967 13.85C7.59967 14.0417 7.70801 14.3083 7.70801 14.5833C7.70801 14.8583 7.59967 15.125 7.39967 15.3167ZM14.0663 15.3167C14.0247 15.3667 13.9663 15.4083 13.908 15.45C13.858 15.4833 13.7913 15.5167 13.733 15.5417C13.6663 15.575 13.5997 15.5917 13.5413 15.6083C13.4663 15.6167 13.3997 15.625 13.333 15.625C13.2663 15.625 13.1997 15.6167 13.133 15.6083C13.0663 15.5917 12.9997 15.575 12.933 15.5417C12.8747 15.5167 12.808 15.4833 12.758 15.45C12.6997 15.4083 12.6413 15.3667 12.5997 15.3167C12.3997 15.125 12.2913 14.8583 12.2913 14.5833C12.2913 14.3083 12.3997 14.0417 12.5997 13.85C12.6413 13.8 12.6997 13.7583 12.758 13.7167C12.808 13.6833 12.8747 13.65 12.933 13.625C12.9997 13.5917 13.0663 13.575 13.133 13.5583C13.2663 13.5333 13.3997 13.5333 13.5413 13.5583C13.5997 13.575 13.6663 13.5917 13.733 13.625C13.7913 13.65 13.858 13.6833 13.908 13.7167C13.9663 13.7583 14.0247 13.8 14.0663 13.85C14.2663 14.0417 14.3747 14.3083 14.3747 14.5833C14.3747 14.8583 14.2663 15.125 14.0663 15.3167Z" fill="#444444"/>
<path d="M14.083 1.66667H5.91634C4.49134 1.66667 3.33301 2.825 3.33301 4.25V6.25C3.33301 6.48333 3.51634 6.66667 3.74967 6.66667H16.2497C16.483 6.66667 16.6663 6.48333 16.6663 6.25V4.25C16.6663 2.825 15.508 1.66667 14.083 1.66667ZM12.083 4.79167H7.91634C7.57467 4.79167 7.29134 4.50833 7.29134 4.16667C7.29134 3.825 7.57467 3.54167 7.91634 3.54167H12.083C12.4247 3.54167 12.708 3.825 12.708 4.16667C12.708 4.50833 12.4247 4.79167 12.083 4.79167Z" fill="#444444"/>
<path d="M16.2497 10H3.74967C3.51634 10 3.33301 9.81667 3.33301 9.58333V7.91667C3.33301 7.68333 3.51634 7.5 3.74967 7.5H16.2497C16.483 7.5 16.6663 7.68333 16.6663 7.91667V9.58333C16.6663 9.81667 16.483 10 16.2497 10Z" fill="#444444"/>
</svg>
