<svg width="20" height="20" viewBox="0 0 20 20" fill="none" xmlns="http://www.w3.org/2000/svg">
<path d="M18.3333 12.5C18.3333 15.725 15.725 18.3333 12.5 18.3333L13.375 16.875" stroke="#28A745" stroke-linecap="round" stroke-linejoin="round"/>
<path d="M1.66602 7.50001C1.66602 4.27501 4.27435 1.66667 7.49935 1.66667L6.62435 3.12501" stroke="#28A745" stroke-linecap="round" stroke-linejoin="round"/>
<path d="M17.8333 3.50001V3.50834H10.5V3.50001C10.5 2.76291 10.6044 2.50396 10.721 2.38822C10.839 2.27112 11.1038 2.16667 11.85 2.16667H16.4833C17.2295 2.16667 17.4944 2.27112 17.6124 2.38822C17.729 2.50396 17.8333 2.76291 17.8333 3.50001Z" fill="#28A745" stroke="#28A745"/>
<path d="M10.5 6.09166V5.34166H17.8333V6.09166V6.91666C17.8333 7.65376 17.729 7.9127 17.6124 8.02844C17.4944 8.14554 17.2295 8.24999 16.4833 8.24999H11.85C11.1038 8.24999 10.839 8.14554 10.721 8.02844C10.6044 7.9127 10.5 7.65375 10.5 6.91666V6.09166Z" fill="#28A745" stroke="#28A745"/>
<path d="M9.49935 13.0833V13.0917H2.16602V13.0833C2.16602 12.3462 2.27037 12.0873 2.38698 11.9716C2.50497 11.8544 2.76983 11.75 3.51602 11.75H8.14935C8.89554 11.75 9.16039 11.8544 9.27838 11.9716C9.395 12.0873 9.49935 12.3462 9.49935 13.0833Z" fill="#28A745" stroke="#28A745"/>
<path d="M2.08268 14.425C1.84935 14.425 1.66602 14.6083 1.66602 14.8417V15.675V16.5C1.66602 17.9667 2.03268 18.3333 3.51602 18.3333H8.14935C9.63268 18.3333 9.99935 17.9667 9.99935 16.5V15.675V14.8417C9.99935 14.6083 9.81602 14.425 9.58268 14.425H2.08268Z" fill="#28A745"/>
</svg>
