<svg width="16" height="17" viewBox="0 0 16 17" fill="none" xmlns="http://www.w3.org/2000/svg">
<path d="M14.6466 12.72C14.6466 12.96 14.5933 13.2067 14.4799 13.4467C14.3666 13.6867 14.2199 13.9134 14.0266 14.1267C13.6999 14.4867 13.3399 14.7467 12.9333 14.9134C12.5333 15.08 12.0999 15.1667 11.6333 15.1667C10.9533 15.1667 10.2266 15.0067 9.45992 14.68C8.69325 14.3534 7.92659 13.9134 7.16659 13.36C6.39992 12.8 5.67325 12.18 4.97992 11.4934C4.29325 10.8 3.67325 10.0734 3.11992 9.31337C2.57325 8.55337 2.13325 7.79337 1.81325 7.04004C1.49325 6.28004 1.33325 5.55337 1.33325 4.86004C1.33325 4.40671 1.41325 3.97337 1.57325 3.57337C1.73325 3.16671 1.98659 2.79337 2.33992 2.46004C2.76659 2.04004 3.23325 1.83337 3.72659 1.83337C3.91325 1.83337 4.09992 1.87337 4.26659 1.95337C4.43992 2.03337 4.59325 2.15337 4.71325 2.32671L6.25992 4.50671C6.37992 4.67337 6.46659 4.82671 6.52659 4.97337C6.58659 5.11337 6.61992 5.25337 6.61992 5.38004C6.61992 5.54004 6.57325 5.70004 6.47992 5.85337C6.39325 6.00671 6.26659 6.16671 6.10659 6.32671L5.59992 6.85337C5.52659 6.92671 5.49325 7.01337 5.49325 7.12004C5.49325 7.17337 5.49992 7.22004 5.51325 7.27337C5.53325 7.32671 5.55325 7.36671 5.56659 7.40671C5.68659 7.62671 5.89325 7.91337 6.18659 8.26004C6.48659 8.60671 6.80659 8.96004 7.15325 9.31337C7.51325 9.66671 7.85992 9.99337 8.21325 10.2934C8.55992 10.5867 8.84659 10.7867 9.07325 10.9067C9.10659 10.92 9.14659 10.94 9.19325 10.96C9.24659 10.98 9.29992 10.9867 9.35992 10.9867C9.47325 10.9867 9.55992 10.9467 9.63325 10.8734L10.1399 10.3734C10.3066 10.2067 10.4666 10.08 10.6199 10C10.7733 9.90671 10.9266 9.86004 11.0933 9.86004C11.2199 9.86004 11.3533 9.88671 11.4999 9.94671C11.6466 10.0067 11.7999 10.0934 11.9666 10.2067L14.1733 11.7734C14.3466 11.8934 14.4666 12.0334 14.5399 12.2C14.6066 12.3667 14.6466 12.5334 14.6466 12.72Z" stroke="#282828" stroke-miterlimit="10"/>
</svg>
