<svg width="24" height="25" viewBox="0 0 24 25" fill="none" xmlns="http://www.w3.org/2000/svg">
<g clip-path="url(#clip0_47_1100)">
<path d="M7.63004 4.06999C7.80942 3.97215 8.00004 4.12267 8.00004 4.32701V17.8828C8.00004 18.1061 7.84762 18.2949 7.65024 18.3991C7.64347 18.4027 7.63673 18.4063 7.63004 18.41L5.28004 19.75C3.64004 20.69 2.29004 19.91 2.29004 18.01V8.27999C2.29004 7.64999 2.74004 6.86999 3.30004 6.54999L7.63004 4.06999Z" fill="#7D7D7D"/>
<path d="M14.7219 6.60227C14.8922 6.68663 15 6.86026 15 7.05034V20.2035C15 20.572 14.615 20.8139 14.283 20.6539L10.033 18.6063C9.85998 18.523 9.75 18.3479 9.75 18.1559V4.94558C9.75 4.57472 10.1396 4.33293 10.4719 4.49751L14.7219 6.60227Z" fill="#7D7D7D"/>
<path d="M22 6.99V16.72C22 17.35 21.55 18.13 20.99 18.45L17.4986 20.451C17.1653 20.642 16.75 20.4013 16.75 20.0172V6.83032C16.75 6.65081 16.8462 6.48507 17.0021 6.39608L19.01 5.25C20.65 4.31 22 5.09 22 6.99Z" fill="#7D7D7D"/>
</g>
<defs>
<clipPath id="clip0_47_1100">
<rect width="24" height="24" fill="white" transform="translate(0 0.5)"/>
</clipPath>
</defs>
</svg>
