<svg width="24" height="25" viewBox="0 0 24 25" fill="none" xmlns="http://www.w3.org/2000/svg">
<path d="M21.2502 18.97L19.6002 19.36C19.2302 19.45 18.9402 19.73 18.8602 20.1L18.5102 21.57C18.3202 22.37 17.3002 22.62 16.7702 21.99L13.7802 18.55C13.5402 18.27 13.6702 17.83 14.0302 17.74C15.8002 17.31 17.3902 16.32 18.5602 14.91C18.7502 14.68 19.0902 14.65 19.3002 14.86L21.5202 17.08C22.2802 17.84 22.0102 18.79 21.2502 18.97Z" fill="#7D7D7D"/>
<path d="M2.70016 18.97L4.35016 19.36C4.72016 19.45 5.01016 19.73 5.09016 20.1L5.44016 21.57C5.63016 22.37 6.65016 22.62 7.18016 21.99L10.1702 18.55C10.4102 18.27 10.2802 17.83 9.92016 17.74C8.15016 17.31 6.56016 16.32 5.39016 14.91C5.20016 14.68 4.86016 14.65 4.65016 14.86L2.43016 17.08C1.67016 17.84 1.94016 18.79 2.70016 18.97Z" fill="#7D7D7D"/>
<path d="M12 2.5C8.13 2.5 5 5.63 5 9.5C5 10.95 5.43 12.28 6.17 13.39C7.25 14.99 8.96 16.12 10.95 16.41C11.29 16.47 11.64 16.5 12 16.5C12.36 16.5 12.71 16.47 13.05 16.41C15.04 16.12 16.75 14.99 17.83 13.39C18.57 12.28 19 10.95 19 9.5C19 5.63 15.87 2.5 12 2.5ZM15.06 9.28L14.23 10.11C14.09 10.25 14.01 10.52 14.06 10.72L14.3 11.75C14.49 12.56 14.06 12.88 13.34 12.45L12.34 11.86C12.16 11.75 11.86 11.75 11.68 11.86L10.68 12.45C9.96 12.87 9.53 12.56 9.72 11.75L9.96 10.72C10 10.53 9.93 10.25 9.79 10.11L8.94 9.28C8.45 8.79 8.61 8.3 9.29 8.19L10.36 8.01C10.54 7.98 10.75 7.82 10.83 7.66L11.42 6.48C11.74 5.84 12.26 5.84 12.58 6.48L13.17 7.66C13.25 7.82 13.46 7.98 13.65 8.01L14.72 8.19C15.39 8.3 15.55 8.79 15.06 9.28Z" fill="#7D7D7D"/>
</svg>
