<svg width="20" height="20" viewBox="0 0 20 20" fill="none" xmlns="http://www.w3.org/2000/svg">
<path d="M15.3993 10.2083C15.6326 10.2083 15.8326 10.0083 15.8159 9.775C15.5909 6.75 13.0743 4.375 9.99928 4.375C6.92428 4.375 4.40761 6.75 4.18261 9.775C4.16595 10.0083 4.36595 10.2083 4.59928 10.2083H15.3993Z" fill="#28A745"/>
<path d="M18.334 10.8333H18.2673C17.809 10.8333 17.434 10.4583 17.434 9.99999C17.434 9.54166 17.809 9.16666 18.2673 9.16666C18.7257 9.16666 19.134 9.54166 19.134 9.99999C19.134 10.4583 18.7923 10.8333 18.334 10.8333ZM1.73398 10.8333H1.66732C1.20898 10.8333 0.833984 10.4583 0.833984 9.99999C0.833984 9.54166 1.20898 9.16666 1.66732 9.16666C2.12565 9.16666 2.53398 9.54166 2.53398 9.99999C2.53398 10.4583 2.19232 10.8333 1.73398 10.8333ZM15.8423 4.99166C15.6257 4.99166 15.4173 4.90833 15.2507 4.74999C14.9256 4.42499 14.9256 3.89999 15.2507 3.57499L15.359 3.46666C15.684 3.14166 16.209 3.14166 16.534 3.46666C16.859 3.79166 16.859 4.31666 16.534 4.64166L16.4256 4.74999C16.2673 4.90833 16.059 4.99166 15.8423 4.99166ZM4.15898 4.99166C3.94232 4.99166 3.73398 4.90833 3.56732 4.74999L3.45898 4.63333C3.13398 4.30833 3.13398 3.78333 3.45898 3.45833C3.78398 3.13333 4.30898 3.13333 4.63398 3.45833L4.74232 3.56666C5.06732 3.89166 5.06732 4.41666 4.74232 4.74166C4.58398 4.90833 4.36732 4.99166 4.15898 4.99166ZM10.0007 2.53333C9.54232 2.53333 9.16732 2.19166 9.16732 1.73333V1.66666C9.16732 1.20833 9.54232 0.833328 10.0007 0.833328C10.459 0.833328 10.834 1.20833 10.834 1.66666C10.834 2.12499 10.459 2.53333 10.0007 2.53333Z" fill="#28A745"/>
<path d="M16.6673 13.125H3.33398C2.99232 13.125 2.70898 12.8417 2.70898 12.5C2.70898 12.1583 2.99232 11.875 3.33398 11.875H16.6673C17.009 11.875 17.2923 12.1583 17.2923 12.5C17.2923 12.8417 17.009 13.125 16.6673 13.125Z" fill="#28A745"/>
<path d="M15 15.625H5C4.65833 15.625 4.375 15.3417 4.375 15C4.375 14.6583 4.65833 14.375 5 14.375H15C15.3417 14.375 15.625 14.6583 15.625 15C15.625 15.3417 15.3417 15.625 15 15.625Z" fill="#28A745"/>
<path d="M12.5 18.125H7.5C7.15833 18.125 6.875 17.8417 6.875 17.5C6.875 17.1583 7.15833 16.875 7.5 16.875H12.5C12.8417 16.875 13.125 17.1583 13.125 17.5C13.125 17.8417 12.8417 18.125 12.5 18.125Z" fill="#28A745"/>
</svg>
